<svg xmlns="http://www.w3.org/2000/svg" viewBox="0 0 1024 1024" role="img" aria-label="QuickBuild logo">
  <circle cx="512" cy="512" r="512" fill="#172033"/>
  <circle cx="512" cy="512" r="448" fill="#ffffff" opacity="0.08"/>
  <path fill="#ffffff" transform="translate(0 147.166)" d="M 487.358 292.099 L 536.642 278.762 L 536.642 0 L 658.481 0 L 658.481 486.446 C 658.481 553.332 713.309 608.057 780.321 608.057 C 847.333 608.057 902.16 553.332 902.16 486.446 C 902.16 419.559 847.333 364.834 780.321 364.834 C 752.907 364.834 727.778 373.955 707.217 389.156 L 707.979 253.864 C 730.824 247.023 755.191 243.223 780.321 243.223 C 915.106 243.223 1024 351.913 1024 486.446 C 1024 620.978 915.106 729.668 780.321 729.668 C 645.536 729.668 536.642 620.978 536.642 486.446 L 536.642 423.797 L 487.358 437.135 L 487.358 729.668 L 365.519 729.668 L 365.519 243.223 C 365.519 176.337 310.691 121.611 243.679 121.611 C 176.667 121.611 121.84 176.337 121.84 243.223 C 121.84 310.109 176.667 364.834 243.679 364.834 C 271.093 364.834 296.222 355.713 316.783 340.512 L 316.021 475.805 C 293.176 482.645 268.809 486.446 243.679 486.446 C 108.894 486.446 0 377.755 0 243.223 C 0 108.69 108.894 0 243.679 0 C 378.464 0 487.358 108.69 487.358 243.223 L 487.358 292.099 Z"/>
</svg>
